<svg width="34" height="34" viewBox="0 0 34 34" fill="none" xmlns="http://www.w3.org/2000/svg">
<g clip-path="url(#clip0_0_107)">
<path fill-rule="evenodd" clip-rule="evenodd" d="M22.1962 9.91663C22.1962 9.32982 22.6719 8.85413 23.2587 8.85413H31.1667C31.7535 8.85413 32.2292 9.32982 32.2292 9.91663V17.7732C32.2292 18.36 31.7535 18.8357 31.1667 18.8357C30.5799 18.8357 30.1042 18.36 30.1042 17.7732V12.4707L21.4118 21.1101C20.7474 21.7705 20.1748 22.3397 19.6548 22.7342C19.0973 23.1571 18.4779 23.477 17.7155 23.4769C16.953 23.4768 16.3337 23.1568 15.7764 22.7338C15.2564 22.3391 14.684 21.7698 14.0198 21.1093L13.6312 20.723C12.9029 19.9987 12.4306 19.5323 12.0374 19.2339C11.6687 18.9541 11.4964 18.9229 11.3822 18.9229C11.2681 18.9229 11.0958 18.9543 10.7273 19.2343C10.3343 19.533 9.8624 19.9998 9.13455 20.7246L3.5831 26.2528C3.1673 26.6669 2.49456 26.6655 2.0805 26.2497C1.66644 25.8339 1.66785 25.1611 2.08365 24.7471L7.68451 19.1697C8.34883 18.508 8.92139 17.9378 9.44145 17.5425C9.9989 17.1188 10.6185 16.7982 11.3815 16.7979C12.1445 16.7976 12.7643 17.1178 13.322 17.5411C13.8424 17.936 14.4153 18.5058 15.0801 19.1669L15.4687 19.5533C16.1964 20.2769 16.6682 20.7429 17.0611 21.0411C17.4294 21.3206 17.6016 21.3519 17.7157 21.3519C17.8298 21.3519 18.0021 21.3207 18.3704 21.0413C18.7634 20.7432 19.2353 20.2773 19.9632 19.5538L28.5905 10.9791H23.2587C22.6719 10.9791 22.1962 10.5034 22.1962 9.91663Z" fill="white" fill-opacity="0.5"/>
</g>
<defs>
<clipPath id="clip0_0_107">
<rect width="34" height="34" fill="white"/>
</clipPath>
</defs>
</svg>
