<svg width="26" height="26" viewBox="0 0 26 26" fill="none" xmlns="http://www.w3.org/2000/svg">
<path d="M3.31935 8.13592C4.22109 6.34141 5.60391 4.83289 7.31339 3.77882C9.02286 2.72474 10.9917 2.16661 13 2.16675C15.9196 2.16675 18.3723 3.24033 20.2475 4.98883L17.1416 8.09583C16.0182 7.02225 14.5904 6.47516 13 6.47516C10.1779 6.47516 7.78919 8.38183 6.93877 10.9417C6.72211 11.5917 6.59861 12.2851 6.59861 13.0001C6.59861 13.7151 6.72211 14.4084 6.93877 15.0584C7.79027 17.6194 10.1779 19.525 13 19.525C14.4571 19.525 15.6975 19.1404 16.6682 18.4904C17.2309 18.1199 17.7127 17.6392 18.0843 17.0772C18.456 16.5152 18.7098 15.8838 18.8305 15.2209H13V11.0306H23.2029C23.3307 11.7391 23.4 12.4779 23.4 13.246C23.4 16.5458 22.2192 19.3235 20.1695 21.2085C18.3777 22.8638 15.925 23.8334 13 23.8334C11.5772 23.834 10.1682 23.5542 8.85361 23.0099C7.53899 22.4657 6.34451 21.6678 5.33843 20.6617C4.33235 19.6556 3.53439 18.4611 2.99017 17.1465C2.44594 15.8319 2.16612 14.4229 2.16669 13.0001C2.16669 11.2516 2.58485 9.59842 3.31935 8.13592Z" fill="#9BA19F"/>
</svg>
