<svg width="35" height="32" viewBox="0 0 35 32" fill="none" xmlns="http://www.w3.org/2000/svg">
<g clip-path="url(#clip0_0_102)">
<path d="M28.0116 13.3866C28.4443 10.58 26.2196 9.08263 23.1548 8.06663L24.1485 4.28396L21.7284 3.70929L20.7641 7.39863L18.8325 6.95729L19.8108 3.24129L17.3922 2.66663L16.3999 6.46263L14.8605 6.11596V6.10263L11.5166 5.29996L10.8732 7.77196C10.8732 7.77196 12.6638 8.17463 12.6359 8.18663C13.6156 8.42796 13.7831 9.04263 13.7552 9.52396L12.6359 13.8546L12.8871 13.9346L12.6219 13.8813L11.0406 19.936C10.929 20.2173 10.6206 20.6453 9.9353 20.4706C9.96321 20.5106 8.18656 20.0706 8.18656 20.0706L6.98352 22.704L10.1321 23.4506L11.8529 23.88L10.8453 27.716L13.2653 28.2893L14.245 24.4946L16.1892 24.9746L15.1969 28.7573L17.6169 29.3333L18.6092 25.4973C22.7375 26.244 25.8442 25.9506 27.1449 22.3813C28.1944 19.5093 27.0891 17.864 24.9203 16.768C26.5015 16.4346 27.6906 15.432 27.9977 13.3866H28.0116ZM22.4849 20.792C21.7424 23.6666 16.679 22.1013 15.0419 21.728L16.3706 16.6346C18.0063 17.036 23.2678 17.7973 22.4835 20.7786L22.4849 20.792ZM23.226 13.3466C22.5547 15.9533 18.3287 14.6293 16.9721 14.3093L18.1738 9.69729C19.5457 10.0186 23.9377 10.6333 23.226 13.3466Z" fill="white" fill-opacity="0.66"/>
</g>
<defs>
<clipPath id="clip0_0_102">
<rect width="33.4953" height="32" fill="white" transform="translate(0.775696)"/>
</clipPath>
</defs>
</svg>
